<?xml version="1.0" encoding="utf-8"?>
<!-- Generator: Adobe Illustrator 19.1.0, SVG Export Plug-In . SVG Version: 6.00 Build 0)  -->
<svg version="1.1" id="Capa_1" xmlns="http://www.w3.org/2000/svg" xmlns:xlink="http://www.w3.org/1999/xlink" x="0px" y="0px"
	 viewBox="52 -11.3 224.9 82.3" style="enable-background:new 52 -11.3 224.9 82.3;" xml:space="preserve">
<style type="text/css">
	.st0{fill:#FFFFFF;}
</style>
<path class="st0" d="M125.3,39.1l-4.3,6.3h-5.5l6.7-9.6l-6.3-9.1h5.5l3.9,5.8l3.9-5.8h5.5l-6.3,9.1l6.7,9.6h-5.5L125.3,39.1z"/>
<path class="st0" d="M138.8,26.7h4.9v18.8h-4.9V26.7z M138.8,19.7h4.9v4.9h-4.9V19.7z"/>
<path class="st0" d="M162.2,43.1c-1.5,1.9-3.5,2.9-5.8,2.9c-4.7,0-8.3-3.6-8.3-9.8c0-6.1,3.5-9.9,8.3-9.9c2.2,0,4.3,1,5.8,2.9v-2.4
	h5v18.8h-5V43.1z M162.2,32.8c-0.8-1.2-2.6-2.1-4.3-2.1c-2.8,0-4.7,2.2-4.7,5.4c0,3.2,1.9,5.4,4.7,5.4c1.7,0,3.5-0.9,4.3-2.1V32.8z"
	/>
<path class="st0" d="M181.4,26.2c3.9,0,6.2,1.7,7.4,3.4l-3.2,3c-0.9-1.3-2.3-2-4-2c-3,0-5.1,2.2-5.1,5.4c0,3.3,2.1,5.5,5.1,5.5
	c1.7,0,3.1-0.8,4-2l3.2,3c-1.2,1.8-3.6,3.4-7.4,3.4c-5.8,0-10-4.1-10-9.9C171.5,30.3,175.7,26.2,181.4,26.2z"/>
<path class="st0" d="M191.6,36.1c0-5.3,3.7-9.8,9.9-9.8c6.2,0,10,4.5,10,9.8c0,5.4-3.7,9.9-10,9.9C195.4,45.9,191.6,41.4,191.6,36.1
	z M206.4,36.1c0-2.9-1.8-5.4-4.8-5.4c-3.1,0-4.8,2.5-4.8,5.4c0,3,1.7,5.5,4.8,5.5C204.6,41.5,206.4,39,206.4,36.1z"/>
<path class="st0" d="M215.7,26.7h4.9v2.6c1.3-1.7,3.7-3,6-3v4.8c-0.3-0.1-0.8-0.2-1.4-0.2c-1.6,0-3.8,0.9-4.6,2.1v12.4h-4.9V26.7z"
	/>
<path class="st0" d="M239.2,26.2c5.6,0,9.4,4.2,9.4,10.3v1.1h-14c0.3,2.4,2.2,4.4,5.4,4.4c1.8,0,3.8-0.7,5-1.9l2.2,3.2
	c-1.9,1.7-4.8,2.6-7.7,2.6c-5.7,0-10-3.9-10-9.9C229.5,30.6,233.5,26.2,239.2,26.2z M234.6,34.3h9.3c-0.1-1.8-1.4-4.2-4.6-4.2
	C236.1,30.1,234.8,32.4,234.6,34.3z"/>
<polygon class="st0" points="101.9,14.3 80.5,45.5 88.2,45.5 101.9,25.4 112.8,41.4 116.7,35.8 "/>
</svg>
